<svg preserveAspectRatio="none" width="100%" height="100%" overflow="visible" style="display: block;" viewBox="0 0 24 24" fill="none" xmlns="http://www.w3.org/2000/svg">
<g id="Icon">
<path id="Vector" d="M10 5C9.50308 5.00003 9.02397 5.18504 8.656 5.519L2.328 11.259C2.22472 11.3527 2.14219 11.467 2.08571 11.5946C2.02923 11.7221 2.00006 11.86 2.00006 11.9995C2.00006 12.139 2.02923 12.2769 2.08571 12.4044C2.14219 12.532 2.22472 12.6463 2.328 12.74L8.656 18.481C9.02397 18.815 9.50308 19 10 19H20C20.5304 19 21.0391 18.7893 21.4142 18.4142C21.7893 18.0391 22 17.5304 22 17V7C22 6.46957 21.7893 5.96086 21.4142 5.58579C21.0391 5.21071 20.5304 5 20 5H10Z" stroke="var(--stroke-0, #0A0A0A)" stroke-width="2" stroke-linecap="round" stroke-linejoin="round"/>
<path id="Vector_2" d="M12 9L18 15" stroke="var(--stroke-0, #0A0A0A)" stroke-width="2" stroke-linecap="round" stroke-linejoin="round"/>
<path id="Vector_3" d="M18 9L12 15" stroke="var(--stroke-0, #0A0A0A)" stroke-width="2" stroke-linecap="round" stroke-linejoin="round"/>
</g>
</svg>
